<svg id="Camada_1" data-name="Camada 1" xmlns="http://www.w3.org/2000/svg" viewBox="0 0 91.16 90.53"><defs><style>.cls-1{fill:#3398c3;}.cls-2{fill:#fff;}</style></defs><title>icones </title><circle class="cls-1" cx="46.92" cy="46.29" r="44.24"/><path class="cls-2" d="M58.8,62.72c.08-1.3.17-2.52.24-3.75q.44-7.56.87-15.13c0-.31,0-.62,0-.94a1.07,1.07,0,0,0-1-1.09c-.71-.13-1.07-.5-1-1.06s.49-.9,1.19-.9h7.61a1,1,0,0,1,1.14.88c.05.58-.29.94-1,1.07a1.11,1.11,0,0,0-1,1.25c.18,3.23.38,6.45.57,9.68q.25,4.29.49,8.58c0,.44.05.88.09,1.39h1.17a1.75,1.75,0,1,1,0,3.46H25.63A1.82,1.82,0,0,1,23.68,65a1.74,1.74,0,0,1,1.67-2.25c.46,0,.91,0,1.42,0,.06-.89.12-1.73.17-2.56q.3-5.14.59-10.29.19-3.3.4-6.6c.06-.89-.24-1.3-1.09-1.47a1,1,0,0,1,.11-1.93c.59,0,1.18,0,1.76,0h5.68c.18,0,.37,0,.55,0a1,1,0,0,1,1,.9,1,1,0,0,1-.86,1c-.87.18-1.16.53-1.11,1.4.24,4.13.49,8.25.73,12.38.13,2.2.26,4.4.36,6.6,0,.42.13.56.57.56q3.36,0,6.72,0c.45,0,.54-.16.56-.57q.46-8.31,1-16.61c0-.81.1-1.61.13-2.42a1.13,1.13,0,0,0-1.07-1.33,1,1,0,0,1-.91-1,1,1,0,0,1,1-.89q3.94,0,7.88,0a1,1,0,0,1,1,.88,1,1,0,0,1-.9,1.06,1.15,1.15,0,0,0-1.08,1.38q.41,7,.83,14c.1,1.63.19,3.26.25,4.9,0,.45.12.63.63.63,2.19,0,4.37,0,6.56,0Z"/><path class="cls-2" d="M46.93,37.53H22.35a2.21,2.21,0,0,1-2.19-1.36c-.24-.52-.51-1-.76-1.53A1.24,1.24,0,0,1,20,32.71L33,26q6.28-3.26,12.56-6.52a2.79,2.79,0,0,1,2.77,0Q60.93,26,73.57,32.58l.24.13a1.28,1.28,0,0,1,.63,2c-.24.49-.51,1-.74,1.48a2.21,2.21,0,0,1-2.19,1.36H46.93Z"/><path class="cls-2" d="M46.92,67.35H71.56a1.76,1.76,0,0,1,1.91,2.2,1.78,1.78,0,0,1-1.9,1.27H22.34c-1.2,0-2-.63-2-1.64a1.72,1.72,0,0,1,1.89-1.82h24.7Z"/></svg>