<svg id="Camada_1" data-name="Camada 1" xmlns="http://www.w3.org/2000/svg" viewBox="0 0 103 88.48"><defs><style>.cls-1{fill:#3398c3;}.cls-2{fill:#fff;}</style></defs><title>icones </title><circle class="cls-1" cx="53.88" cy="43.98" r="43.92"/><path class="cls-2" d="M75.91,66.78H31.85a7.21,7.21,0,0,1-7.2-7.2V35.65a7.21,7.21,0,0,1,7.2-7.2H75.91a7.21,7.21,0,0,1,7.2,7.2V59.58A7.21,7.21,0,0,1,75.91,66.78ZM31.85,30.41a5.25,5.25,0,0,0-5.24,5.24V59.58a5.25,5.25,0,0,0,5.24,5.24H75.91a5.25,5.25,0,0,0,5.24-5.24V35.65a5.25,5.25,0,0,0-5.24-5.24Z"/><rect class="cls-2" x="26.19" y="34.9" width="55.39" height="6.47"/><rect class="cls-2" x="31.36" y="46.08" width="20.89" height="1.89"/><rect class="cls-2" x="31.36" y="51.39" width="20.89" height="1.89"/><rect class="cls-2" x="31.36" y="56.84" width="20.89" height="1.89"/><path class="cls-2" d="M70.67,48.66q0,.09,0,.17t0,.17,0,.25c0,.09,0,.18-.06.27a3.37,3.37,0,0,1-.17.49l0,.07-.12.23,0,.07a3.41,3.41,0,0,1-.58.72l-.06.06-.11.1-.08.06-.18.13,0,0-.25.15-.23.12h0a3.35,3.35,0,0,1-.49.18l-.11,0a3.4,3.4,0,0,1-.52.08H67A3.4,3.4,0,0,1,66.5,52l-.11,0a3.36,3.36,0,0,1-.49-.18h0l-.21-.1-.27-.16,0,0-.18-.13-.08-.06-.11-.1-.12-.12a3.4,3.4,0,0,1-.52-.67l0-.07-.12-.23,0-.07a3.35,3.35,0,0,1-.17-.49c0-.09,0-.18-.06-.27s0-.17,0-.25,0-.11,0-.17,0-.12,0-.17,0-.12,0-.17,0-.07,0-.11h0s0,0,0-.07,0,0,0-.06,0-.13,0-.19,0-.18.06-.27a3.36,3.36,0,0,1,.17-.49l0,0,0,0,.12-.23,0-.07a3.41,3.41,0,0,1,.58-.72l.06-.06.11-.1L65.2,46l.18-.13,0,0a3.38,3.38,0,0,1,.48-.27h0a3.35,3.35,0,0,1,.49-.18l.11,0a3.4,3.4,0,0,1,.52-.08h.52a3.4,3.4,0,0,1,.52.08l.11,0a3.35,3.35,0,0,1,.49.18h0a3.38,3.38,0,0,1,.48.27l0,0,.18.13.08.06.11.1.06.06a3.4,3.4,0,0,1,.58.72l0,.07.12.23,0,.07a3.37,3.37,0,0,1,.17.49c0,.09,0,.18.06.27s0,.17,0,.25v.17Q70.67,48.57,70.67,48.66Z"/><path class="cls-2" d="M63.9,48.37h0Zm-.06,0h0l.05,0h0Z"/><path class="cls-2" d="M63.84,48.34l.05,0,0,0Z"/><circle class="cls-2" cx="63.9" cy="48.37" transform="translate(-11.92 74.36) rotate(-56.04)"/><path class="cls-2" d="M72.91,55.29V58.8c0,.07,0,.13-.09.13H61.74c-.07,0-.11-.06-.11-.13V55.29c0-.06,0-.11,0-.17A3.43,3.43,0,0,1,62.52,53l0,0a3.26,3.26,0,0,1,.9-.67l.06,0,.28-.12.06,0,.27-.07a4.55,4.55,0,0,0,.34.3,4.66,4.66,0,0,0,1,.59l.2.08a4.19,4.19,0,0,0,2.53.19s.08,0,.11,0h.17a1.29,1.29,0,0,0,.43-.15l.17-.06a3.81,3.81,0,0,0,.78-.43h0s.05,0,.08-.07a4.84,4.84,0,0,0,.46-.4,3.33,3.33,0,0,1,2.5,3.12C72.92,55.18,72.91,55.24,72.91,55.29Z"/></svg>