<svg id="Camada_1" data-name="Camada 1" xmlns="http://www.w3.org/2000/svg" viewBox="0 0 93.5 88.18"><defs><style>.cls-1{fill:#3398c3;}.cls-2{fill:#fff;}</style></defs><title>icones </title><circle class="cls-1" cx="47.01" cy="43.8" r="43.8"/><path class="cls-2" d="M45.79,33.83l0-16.27H64.5V66h-35V33.82ZM27.05,33V68.49H67V15.09H45.11Z"/><rect class="cls-2" x="33.04" y="41.09" width="27.05" height="2.16" transform="translate(93.14 84.33) rotate(180)"/><rect class="cls-2" x="33.04" y="48.57" width="27.05" height="2.16" transform="translate(93.14 99.31) rotate(180)"/><rect class="cls-2" x="33.04" y="56.06" width="27.05" height="2.16" transform="translate(93.14 114.29) rotate(180)"/><path class="cls-2" d="M58.55,23.07l1.18,1.2-6.28,6.3a2.66,2.66,0,0,1-.44.38.83.83,0,0,1-1.16-1.12,1.56,1.56,0,0,1,.26-.33C54.2,27.4,58.48,23.13,58.55,23.07Z"/><path class="cls-2" d="M61.67,24.84,58,21.17a8.15,8.15,0,0,1,.93-.8,1.61,1.61,0,0,1,2,.24c.39.35.76.74,1.13,1.12a1.77,1.77,0,0,1,.06,2.67Z"/><path class="cls-2" d="M57.36,21.85l.63.57-.41.41-5.92,5.92c-.11.11-.28.32-.42.35a.45.45,0,0,1-.45-.1.5.5,0,0,1-.1-.41c0-.1.18-.26.27-.34L57.18,22Z"/><path class="cls-2" d="M60.32,24.81l.63.57-.41.41-5.92,5.92c-.11.11-.28.32-.42.35a.45.45,0,0,1-.45-.1.5.5,0,0,1-.1-.41c0-.1.18-.26.27-.34L60.14,25Z"/><path class="cls-2" d="M50.1,29.69a1,1,0,0,1,.85.95c.08.7.61,1.1,1.48,1.27a.78.78,0,0,1,.56.44l.16.36-4.06,1Z"/></svg>